<svg width="30" height="30" viewBox="0 0 30 30" fill="none" xmlns="http://www.w3.org/2000/svg">
<path d="M19.6938 17.8184H18.7063L18.3563 17.4809C19.5813 16.0559 20.3188 14.2059 20.3188 12.1934C20.3188 7.70586 16.6813 4.06836 12.1938 4.06836C7.70635 4.06836 4.06885 7.70586 4.06885 12.1934C4.06885 16.6809 7.70635 20.3184 12.1938 20.3184C14.2063 20.3184 16.0563 19.5809 17.4813 18.3559L17.8188 18.7059V19.6934L24.0688 25.9309L25.9313 24.0684L19.6938 17.8184ZM12.1938 17.8184C9.08135 17.8184 6.56885 15.3059 6.56885 12.1934C6.56885 9.08086 9.08135 6.56836 12.1938 6.56836C15.3063 6.56836 17.8188 9.08086 17.8188 12.1934C17.8188 15.3059 15.3063 17.8184 12.1938 17.8184Z" fill="#474C58"/>
</svg>
